<mxfile host="app.diagrams.net" modified="2024-03-08T01:22:29.952Z" agent="Mozilla/5.0 (Windows NT 10.0; Win64; x64) AppleWebKit/537.36 (KHTML, like Gecko) Chrome/122.0.0.0 Safari/537.36" etag="w5a39BExsAZbs3ZqXpw1" version="24.0.2" type="google">
  <diagram name="Página-1" id="FtgPcknRFZGj1r-_ShG4">
    <mxGraphModel grid="1" page="1" gridSize="10" guides="1" tooltips="1" connect="1" arrows="1" fold="1" pageScale="1" pageWidth="827" pageHeight="1169" math="0" shadow="0">
      <root>
        <mxCell id="0" />
        <mxCell id="1" parent="0" />
        <mxCell id="ImfPI1gHNw6kRm022VUb-59" value="&lt;font style=&quot;font-size: 12px;&quot;&gt;&lt;b style=&quot;border-color: var(--border-color);&quot;&gt;PAYMENT CONSUMER&lt;/b&gt;&lt;br style=&quot;border-color: var(--border-color);&quot;&gt;Processa o pagamento dos clientes.&lt;br&gt;&lt;/font&gt;" style="rounded=0;whiteSpace=wrap;html=1;fillColor=#dae8fc;strokeColor=#6c8ebf;" vertex="1" parent="1">
          <mxGeometry x="3216" y="1480" width="226" height="100" as="geometry" />
        </mxCell>
        <mxCell id="ImfPI1gHNw6kRm022VUb-60" value="&lt;b&gt;SERVICE--PAYMENT&lt;/b&gt;&lt;div&gt;Java / Spring Boot&lt;b&gt;&lt;br&gt;&lt;/b&gt;&lt;/div&gt;" style="rounded=0;whiteSpace=wrap;html=1;fillColor=#dae8fc;strokeColor=#6c8ebf;" vertex="1" parent="1">
          <mxGeometry x="3213" y="1280" width="232" height="100" as="geometry" />
        </mxCell>
        <mxCell id="ImfPI1gHNw6kRm022VUb-61" value="&lt;font style=&quot;font-size: 12px;&quot;&gt;&lt;b style=&quot;border-color: var(--border-color);&quot;&gt;LOG REPOSITORY&lt;/b&gt;&lt;br style=&quot;border-color: var(--border-color);&quot;&gt;Salva o log do processamento&lt;br&gt;&lt;/font&gt;" style="rounded=0;whiteSpace=wrap;html=1;fillColor=#dae8fc;strokeColor=#6c8ebf;" vertex="1" parent="1">
          <mxGeometry x="3213" y="1967" width="226" height="100" as="geometry" />
        </mxCell>
        <mxCell id="ImfPI1gHNw6kRm022VUb-62" value="OBJECT JAVA" style="edgeLabel;html=1;align=center;verticalAlign=middle;resizable=0;points=[];" connectable="0" vertex="1" parent="1">
          <mxGeometry x="2959.9999999999995" y="1940.003333333333" as="geometry">
            <mxPoint x="365" y="-8" as="offset" />
          </mxGeometry>
        </mxCell>
        <mxCell id="ImfPI1gHNw6kRm022VUb-63" value="&lt;font style=&quot;font-size: 12px;&quot;&gt;&lt;b style=&quot;border-color: var(--border-color);&quot;&gt;PAYMENT SERVICE&lt;/b&gt;&lt;br style=&quot;border-color: var(--border-color);&quot;&gt;Processa o pagamento dos clientes.&lt;br&gt;&lt;/font&gt;" style="rounded=0;whiteSpace=wrap;html=1;fillColor=#dae8fc;strokeColor=#6c8ebf;" vertex="1" parent="1">
          <mxGeometry x="3216" y="1680" width="226" height="100" as="geometry" />
        </mxCell>
        <mxCell id="ImfPI1gHNw6kRm022VUb-64" value="" style="endArrow=classic;startArrow=classic;html=1;rounded=0;entryX=0.5;entryY=1;entryDx=0;entryDy=0;exitX=0.5;exitY=0;exitDx=0;exitDy=0;" edge="1" parent="1" source="ImfPI1gHNw6kRm022VUb-63" target="ImfPI1gHNw6kRm022VUb-59">
          <mxGeometry width="50" height="50" relative="1" as="geometry">
            <mxPoint x="4109" y="1880" as="sourcePoint" />
            <mxPoint x="4159" y="1830" as="targetPoint" />
          </mxGeometry>
        </mxCell>
        <mxCell id="ImfPI1gHNw6kRm022VUb-65" value="OBJECT JAVA" style="edgeLabel;html=1;align=center;verticalAlign=middle;resizable=0;points=[];" connectable="0" vertex="1" parent="ImfPI1gHNw6kRm022VUb-64">
          <mxGeometry x="-0.0253" relative="1" as="geometry">
            <mxPoint y="-1" as="offset" />
          </mxGeometry>
        </mxCell>
        <mxCell id="ImfPI1gHNw6kRm022VUb-66" value="" style="endArrow=classic;startArrow=classic;html=1;rounded=0;entryX=0.5;entryY=1;entryDx=0;entryDy=0;exitX=0.5;exitY=0;exitDx=0;exitDy=0;" edge="1" parent="1" source="ImfPI1gHNw6kRm022VUb-61" target="ImfPI1gHNw6kRm022VUb-63">
          <mxGeometry width="50" height="50" relative="1" as="geometry">
            <mxPoint x="3649" y="2000" as="sourcePoint" />
            <mxPoint x="3699" y="1950" as="targetPoint" />
          </mxGeometry>
        </mxCell>
        <mxCell id="ImfPI1gHNw6kRm022VUb-67" value="" style="endArrow=classic;startArrow=classic;html=1;rounded=0;entryX=0.5;entryY=1;entryDx=0;entryDy=0;exitX=0.5;exitY=0;exitDx=0;exitDy=0;" edge="1" parent="1" source="ImfPI1gHNw6kRm022VUb-59" target="ImfPI1gHNw6kRm022VUb-60">
          <mxGeometry width="50" height="50" relative="1" as="geometry">
            <mxPoint x="3459" y="1880" as="sourcePoint" />
            <mxPoint x="3509" y="1830" as="targetPoint" />
          </mxGeometry>
        </mxCell>
        <mxCell id="ImfPI1gHNw6kRm022VUb-68" value="OBJECT JAVA" style="edgeLabel;html=1;align=center;verticalAlign=middle;resizable=0;points=[];" connectable="0" vertex="1" parent="ImfPI1gHNw6kRm022VUb-67">
          <mxGeometry x="0.0569" relative="1" as="geometry">
            <mxPoint y="-1" as="offset" />
          </mxGeometry>
        </mxCell>
        <mxCell id="ImfPI1gHNw6kRm022VUb-69" value="&lt;b&gt;PAYMENT DB&lt;/b&gt;" style="shape=cylinder3;whiteSpace=wrap;html=1;boundedLbl=1;backgroundOutline=1;size=15;" vertex="1" parent="1">
          <mxGeometry x="3246" y="2170" width="160" height="130" as="geometry" />
        </mxCell>
        <mxCell id="ImfPI1gHNw6kRm022VUb-70" value="" style="endArrow=classic;startArrow=classic;html=1;rounded=0;exitX=0.5;exitY=1;exitDx=0;exitDy=0;entryX=0.5;entryY=0;entryDx=0;entryDy=0;entryPerimeter=0;" edge="1" parent="1" source="ImfPI1gHNw6kRm022VUb-61" target="ImfPI1gHNw6kRm022VUb-69">
          <mxGeometry width="50" height="50" relative="1" as="geometry">
            <mxPoint x="3310" y="1990" as="sourcePoint" />
            <mxPoint x="3360" y="1940" as="targetPoint" />
          </mxGeometry>
        </mxCell>
        <mxCell id="ImfPI1gHNw6kRm022VUb-71" value="E ESCRITA" style="edgeLabel;html=1;align=center;verticalAlign=middle;resizable=0;points=[];" connectable="0" vertex="1" parent="ImfPI1gHNw6kRm022VUb-70">
          <mxGeometry x="0.1232" relative="1" as="geometry">
            <mxPoint y="-1" as="offset" />
          </mxGeometry>
        </mxCell>
        <mxCell id="ImfPI1gHNw6kRm022VUb-72" value="&lt;font style=&quot;font-size: 12px;&quot;&gt;&lt;b style=&quot;border-color: var(--border-color);&quot;&gt;CUSTOMER REPOSITORY&lt;/b&gt;&lt;br style=&quot;border-color: var(--border-color);&quot;&gt;Busca as informações do Cliente&lt;/font&gt;" style="rounded=0;whiteSpace=wrap;html=1;fillColor=#dae8fc;strokeColor=#6c8ebf;" vertex="1" parent="1">
          <mxGeometry x="2905" y="1967" width="226" height="100" as="geometry" />
        </mxCell>
        <mxCell id="ImfPI1gHNw6kRm022VUb-73" value="&lt;b&gt;API--CUSTOMER&lt;/b&gt;&lt;div&gt;Java / Spring Boot&lt;/div&gt;" style="rounded=0;whiteSpace=wrap;html=1;fillColor=#dae8fc;strokeColor=#6c8ebf;" vertex="1" parent="1">
          <mxGeometry x="2905" y="2170" width="226" height="100" as="geometry" />
        </mxCell>
        <mxCell id="ImfPI1gHNw6kRm022VUb-74" value="" style="endArrow=classic;startArrow=classic;html=1;rounded=0;entryX=0.5;entryY=1;entryDx=0;entryDy=0;exitX=0.5;exitY=0;exitDx=0;exitDy=0;" edge="1" parent="1" source="ImfPI1gHNw6kRm022VUb-73" target="ImfPI1gHNw6kRm022VUb-72">
          <mxGeometry width="50" height="50" relative="1" as="geometry">
            <mxPoint x="3110" y="2150" as="sourcePoint" />
            <mxPoint x="3160" y="2100" as="targetPoint" />
          </mxGeometry>
        </mxCell>
        <mxCell id="ImfPI1gHNw6kRm022VUb-75" value="HTTP/JSON" style="edgeLabel;html=1;align=center;verticalAlign=middle;resizable=0;points=[];" connectable="0" vertex="1" parent="ImfPI1gHNw6kRm022VUb-74">
          <mxGeometry x="-0.1179" y="1" relative="1" as="geometry">
            <mxPoint as="offset" />
          </mxGeometry>
        </mxCell>
        <mxCell id="ImfPI1gHNw6kRm022VUb-76" value="" style="endArrow=classic;startArrow=classic;html=1;rounded=0;exitX=0.5;exitY=0;exitDx=0;exitDy=0;entryX=-0.017;entryY=0.535;entryDx=0;entryDy=0;entryPerimeter=0;" edge="1" parent="1" source="ImfPI1gHNw6kRm022VUb-72" target="ImfPI1gHNw6kRm022VUb-63">
          <mxGeometry width="50" height="50" relative="1" as="geometry">
            <mxPoint x="3110" y="2150" as="sourcePoint" />
            <mxPoint x="3210" y="1840" as="targetPoint" />
            <Array as="points">
              <mxPoint x="3020" y="1734" />
            </Array>
          </mxGeometry>
        </mxCell>
        <mxCell id="ImfPI1gHNw6kRm022VUb-77" value="OBJECT JAVA" style="edgeLabel;html=1;align=center;verticalAlign=middle;resizable=0;points=[];" connectable="0" vertex="1" parent="ImfPI1gHNw6kRm022VUb-76">
          <mxGeometry x="-0.6135" y="3" relative="1" as="geometry">
            <mxPoint as="offset" />
          </mxGeometry>
        </mxCell>
        <mxCell id="ImfPI1gHNw6kRm022VUb-86" value="" style="endArrow=classic;startArrow=classic;html=1;rounded=0;entryX=0.996;entryY=0.327;entryDx=0;entryDy=0;exitX=0;exitY=0.5;exitDx=0;exitDy=0;entryPerimeter=0;" edge="1" parent="1" source="ImfPI1gHNw6kRm022VUb-97" target="ImfPI1gHNw6kRm022VUb-63">
          <mxGeometry width="50" height="50" relative="1" as="geometry">
            <mxPoint x="3939" y="1968" as="sourcePoint" />
            <mxPoint x="3744" y="1840" as="targetPoint" />
            <Array as="points">
              <mxPoint x="3650" y="1713" />
            </Array>
          </mxGeometry>
        </mxCell>
        <mxCell id="ImfPI1gHNw6kRm022VUb-99" value="OBJECT JAVA" style="edgeLabel;html=1;align=center;verticalAlign=middle;resizable=0;points=[];" connectable="0" vertex="1" parent="ImfPI1gHNw6kRm022VUb-86">
          <mxGeometry x="0.352" y="-1" relative="1" as="geometry">
            <mxPoint x="134" y="-2" as="offset" />
          </mxGeometry>
        </mxCell>
        <mxCell id="ImfPI1gHNw6kRm022VUb-91" value="&lt;font style=&quot;font-size: 12px;&quot;&gt;&lt;b style=&quot;border-color: var(--border-color);&quot;&gt;ORDER REPOSITORY&lt;/b&gt;&lt;br style=&quot;border-color: var(--border-color);&quot;&gt;Atualiza o status do pedido&lt;/font&gt;" style="rounded=0;whiteSpace=wrap;html=1;fillColor=#dae8fc;strokeColor=#6c8ebf;" vertex="1" parent="1">
          <mxGeometry x="2601" y="1968" width="226" height="100" as="geometry" />
        </mxCell>
        <mxCell id="ImfPI1gHNw6kRm022VUb-92" value="&lt;b&gt;API--ORDER&lt;/b&gt;&lt;div&gt;Java / Spring Boot&lt;/div&gt;" style="rounded=0;whiteSpace=wrap;html=1;fillColor=#dae8fc;strokeColor=#6c8ebf;" vertex="1" parent="1">
          <mxGeometry x="2601" y="2171" width="226" height="100" as="geometry" />
        </mxCell>
        <mxCell id="ImfPI1gHNw6kRm022VUb-93" value="" style="endArrow=classic;startArrow=classic;html=1;rounded=0;entryX=0.5;entryY=1;entryDx=0;entryDy=0;exitX=0.5;exitY=0;exitDx=0;exitDy=0;" edge="1" parent="1" source="ImfPI1gHNw6kRm022VUb-92" target="ImfPI1gHNw6kRm022VUb-91">
          <mxGeometry width="50" height="50" relative="1" as="geometry">
            <mxPoint x="2806" y="2151" as="sourcePoint" />
            <mxPoint x="2856" y="2101" as="targetPoint" />
          </mxGeometry>
        </mxCell>
        <mxCell id="ImfPI1gHNw6kRm022VUb-94" value="HTTP/JSON" style="edgeLabel;html=1;align=center;verticalAlign=middle;resizable=0;points=[];" connectable="0" vertex="1" parent="ImfPI1gHNw6kRm022VUb-93">
          <mxGeometry x="-0.1179" y="1" relative="1" as="geometry">
            <mxPoint as="offset" />
          </mxGeometry>
        </mxCell>
        <mxCell id="ImfPI1gHNw6kRm022VUb-95" value="" style="endArrow=classic;startArrow=classic;html=1;rounded=0;exitX=0.5;exitY=0;exitDx=0;exitDy=0;" edge="1" parent="1" source="ImfPI1gHNw6kRm022VUb-91">
          <mxGeometry width="50" height="50" relative="1" as="geometry">
            <mxPoint x="2714" y="1868" as="sourcePoint" />
            <mxPoint x="3210" y="1710" as="targetPoint" />
            <Array as="points">
              <mxPoint x="2714" y="1710" />
            </Array>
          </mxGeometry>
        </mxCell>
        <mxCell id="ImfPI1gHNw6kRm022VUb-96" value="OBJECT JAVA" style="edgeLabel;html=1;align=center;verticalAlign=middle;resizable=0;points=[];" connectable="0" vertex="1" parent="ImfPI1gHNw6kRm022VUb-95">
          <mxGeometry x="-0.6135" y="3" relative="1" as="geometry">
            <mxPoint x="9" y="52" as="offset" />
          </mxGeometry>
        </mxCell>
        <mxCell id="ImfPI1gHNw6kRm022VUb-97" value="&lt;font style=&quot;font-size: 12px;&quot;&gt;&lt;b&gt;PROCESS PAYMENT SERVICE&lt;/b&gt;&lt;br style=&quot;border-color: var(--border-color);&quot;&gt;Processa o pagamento de acordo com a opção escolhida do cliente&lt;br&gt;&lt;/font&gt;" style="rounded=0;whiteSpace=wrap;html=1;fillColor=#dae8fc;strokeColor=#6c8ebf;" vertex="1" parent="1">
          <mxGeometry x="3911" y="1660" width="226" height="100" as="geometry" />
        </mxCell>
        <mxCell id="ImfPI1gHNw6kRm022VUb-100" value="&lt;font style=&quot;font-size: 12px;&quot;&gt;&lt;b&gt;PAYMENT TYPE STRATEGY&lt;/b&gt;&lt;br style=&quot;border-color: var(--border-color);&quot;&gt;Direciona para a forma de pagamento selecionada&lt;/font&gt;" style="rounded=0;whiteSpace=wrap;html=1;fillColor=#dae8fc;strokeColor=#6c8ebf;" vertex="1" parent="1">
          <mxGeometry x="3912" y="1810" width="226" height="100" as="geometry" />
        </mxCell>
        <mxCell id="ImfPI1gHNw6kRm022VUb-101" value="" style="endArrow=classic;startArrow=classic;html=1;rounded=0;entryX=0.5;entryY=1;entryDx=0;entryDy=0;exitX=0.5;exitY=0;exitDx=0;exitDy=0;" edge="1" parent="1" source="ImfPI1gHNw6kRm022VUb-100" target="ImfPI1gHNw6kRm022VUb-97">
          <mxGeometry width="50" height="50" relative="1" as="geometry">
            <mxPoint x="3402" y="2179" as="sourcePoint" />
            <mxPoint x="3452" y="2129" as="targetPoint" />
          </mxGeometry>
        </mxCell>
        <mxCell id="ImfPI1gHNw6kRm022VUb-102" value="OBJECT JAVA" style="edgeLabel;html=1;align=center;verticalAlign=middle;resizable=0;points=[];" connectable="0" vertex="1" parent="ImfPI1gHNw6kRm022VUb-101">
          <mxGeometry x="0.06" y="-3" relative="1" as="geometry">
            <mxPoint as="offset" />
          </mxGeometry>
        </mxCell>
        <mxCell id="ImfPI1gHNw6kRm022VUb-103" value="&lt;font style=&quot;font-size: 12px;&quot;&gt;&lt;b style=&quot;border-color: var(--border-color);&quot;&gt;CARD PAYMENT REPOSITORY&lt;/b&gt;&lt;br style=&quot;border-color: var(--border-color);&quot;&gt;Processa o pagamento&lt;br&gt;&lt;/font&gt;" style="rounded=0;whiteSpace=wrap;html=1;fillColor=#dae8fc;strokeColor=#6c8ebf;" vertex="1" parent="1">
          <mxGeometry x="3912" y="1969" width="226" height="100" as="geometry" />
        </mxCell>
        <mxCell id="ImfPI1gHNw6kRm022VUb-104" value="&lt;font style=&quot;font-size: 12px;&quot;&gt;&lt;b style=&quot;border-color: var(--border-color);&quot;&gt;PIX PAYMENT REPOSITORY&lt;/b&gt;&lt;br style=&quot;border-color: var(--border-color);&quot;&gt;Processa o pagamento&lt;/font&gt;" style="rounded=0;whiteSpace=wrap;html=1;fillColor=#dae8fc;strokeColor=#6c8ebf;" vertex="1" parent="1">
          <mxGeometry x="3596" y="1969" width="226" height="100" as="geometry" />
        </mxCell>
        <mxCell id="ImfPI1gHNw6kRm022VUb-105" value="&lt;font style=&quot;font-size: 12px;&quot;&gt;&lt;b style=&quot;border-color: var(--border-color);&quot;&gt;BANK SLIP REPOSITORY&lt;/b&gt;&lt;br style=&quot;border-color: var(--border-color);&quot;&gt;Processa o pagamento&lt;br&gt;&lt;/font&gt;" style="rounded=0;whiteSpace=wrap;html=1;fillColor=#dae8fc;strokeColor=#6c8ebf;" vertex="1" parent="1">
          <mxGeometry x="4213" y="1969" width="226" height="100" as="geometry" />
        </mxCell>
        <mxCell id="ImfPI1gHNw6kRm022VUb-106" value="" style="endArrow=classic;startArrow=classic;html=1;rounded=0;entryX=-0.015;entryY=0.406;entryDx=0;entryDy=0;entryPerimeter=0;exitX=0.5;exitY=0;exitDx=0;exitDy=0;" edge="1" parent="1" source="ImfPI1gHNw6kRm022VUb-104" target="ImfPI1gHNw6kRm022VUb-100">
          <mxGeometry width="50" height="50" relative="1" as="geometry">
            <mxPoint x="3690" y="2100" as="sourcePoint" />
            <mxPoint x="3740" y="2050" as="targetPoint" />
            <Array as="points">
              <mxPoint x="3709" y="1851" />
              <mxPoint x="3933" y="1850" />
            </Array>
          </mxGeometry>
        </mxCell>
        <mxCell id="ImfPI1gHNw6kRm022VUb-108" value="OBJECT JAVA" style="edgeLabel;html=1;align=center;verticalAlign=middle;resizable=0;points=[];" connectable="0" vertex="1" parent="ImfPI1gHNw6kRm022VUb-106">
          <mxGeometry x="0.3222" y="1" relative="1" as="geometry">
            <mxPoint x="1" as="offset" />
          </mxGeometry>
        </mxCell>
        <mxCell id="ImfPI1gHNw6kRm022VUb-109" value="" style="endArrow=classic;startArrow=classic;html=1;rounded=0;entryX=0.5;entryY=1;entryDx=0;entryDy=0;exitX=0.5;exitY=0;exitDx=0;exitDy=0;" edge="1" parent="1" source="ImfPI1gHNw6kRm022VUb-103" target="ImfPI1gHNw6kRm022VUb-100">
          <mxGeometry width="50" height="50" relative="1" as="geometry">
            <mxPoint x="3466" y="2250" as="sourcePoint" />
            <mxPoint x="3516" y="2200" as="targetPoint" />
          </mxGeometry>
        </mxCell>
        <mxCell id="ImfPI1gHNw6kRm022VUb-110" value="OBJECT JAVA" style="edgeLabel;html=1;align=center;verticalAlign=middle;resizable=0;points=[];" connectable="0" vertex="1" parent="ImfPI1gHNw6kRm022VUb-109">
          <mxGeometry x="-0.0531" y="2" relative="1" as="geometry">
            <mxPoint y="1" as="offset" />
          </mxGeometry>
        </mxCell>
        <mxCell id="ImfPI1gHNw6kRm022VUb-113" value="" style="endArrow=classic;startArrow=classic;html=1;rounded=0;exitX=0.466;exitY=0.005;exitDx=0;exitDy=0;exitPerimeter=0;entryX=1;entryY=0.25;entryDx=0;entryDy=0;" edge="1" parent="1" target="ImfPI1gHNw6kRm022VUb-100">
          <mxGeometry width="50" height="50" relative="1" as="geometry">
            <mxPoint x="4317.316" y="1969.4999999999998" as="sourcePoint" />
            <mxPoint x="4266" y="1840" as="targetPoint" />
            <Array as="points">
              <mxPoint x="4316" y="1835" />
              <mxPoint x="4266" y="1835" />
            </Array>
          </mxGeometry>
        </mxCell>
        <mxCell id="ImfPI1gHNw6kRm022VUb-114" value="OBJECT JAVA" style="edgeLabel;html=1;align=center;verticalAlign=middle;resizable=0;points=[];" connectable="0" vertex="1" parent="ImfPI1gHNw6kRm022VUb-113">
          <mxGeometry x="0.4464" y="1" relative="1" as="geometry">
            <mxPoint as="offset" />
          </mxGeometry>
        </mxCell>
        <mxCell id="ImfPI1gHNw6kRm022VUb-115" value="" style="endArrow=classic;startArrow=classic;html=1;rounded=0;entryX=0.5;entryY=1;entryDx=0;entryDy=0;exitX=0.991;exitY=0.462;exitDx=0;exitDy=0;exitPerimeter=0;" edge="1" parent="1" source="ImfPI1gHNw6kRm022VUb-69" target="ImfPI1gHNw6kRm022VUb-104">
          <mxGeometry width="50" height="50" relative="1" as="geometry">
            <mxPoint x="3406" y="2235" as="sourcePoint" />
            <mxPoint x="4132" y="1890" as="targetPoint" />
            <Array as="points">
              <mxPoint x="3710" y="2230" />
            </Array>
          </mxGeometry>
        </mxCell>
        <mxCell id="ImfPI1gHNw6kRm022VUb-116" value="" style="endArrow=classic;startArrow=classic;html=1;rounded=0;entryX=0.5;entryY=1;entryDx=0;entryDy=0;" edge="1" parent="1" target="ImfPI1gHNw6kRm022VUb-103">
          <mxGeometry width="50" height="50" relative="1" as="geometry">
            <mxPoint x="3406" y="2250" as="sourcePoint" />
            <mxPoint x="4391.616" y="1890" as="targetPoint" />
            <Array as="points">
              <mxPoint x="4025" y="2250" />
            </Array>
          </mxGeometry>
        </mxCell>
        <mxCell id="ImfPI1gHNw6kRm022VUb-123" value="OBJECT JAVA" style="edgeLabel;html=1;align=center;verticalAlign=middle;resizable=0;points=[];" connectable="0" vertex="1" parent="ImfPI1gHNw6kRm022VUb-116">
          <mxGeometry x="-0.4566" relative="1" as="geometry">
            <mxPoint as="offset" />
          </mxGeometry>
        </mxCell>
        <mxCell id="ImfPI1gHNw6kRm022VUb-121" value="" style="endArrow=classic;startArrow=classic;html=1;rounded=0;exitX=0.992;exitY=0.787;exitDx=0;exitDy=0;exitPerimeter=0;entryX=0.5;entryY=1;entryDx=0;entryDy=0;" edge="1" parent="1" source="ImfPI1gHNw6kRm022VUb-69" target="ImfPI1gHNw6kRm022VUb-105">
          <mxGeometry width="50" height="50" relative="1" as="geometry">
            <mxPoint x="4160" y="2320" as="sourcePoint" />
            <mxPoint x="4210" y="2270" as="targetPoint" />
            <Array as="points">
              <mxPoint x="4420" y="2272" />
              <mxPoint x="4326" y="2272" />
            </Array>
          </mxGeometry>
        </mxCell>
        <mxCell id="ImfPI1gHNw6kRm022VUb-124" value="OBJECT JAVA" style="edgeLabel;html=1;align=center;verticalAlign=middle;resizable=0;points=[];" connectable="0" vertex="1" parent="ImfPI1gHNw6kRm022VUb-121">
          <mxGeometry x="-0.4953" y="1" relative="1" as="geometry">
            <mxPoint as="offset" />
          </mxGeometry>
        </mxCell>
        <mxCell id="ImfPI1gHNw6kRm022VUb-125" value="&lt;font size=&quot;1&quot; style=&quot;&quot;&gt;&lt;b style=&quot;font-size: 14px;&quot;&gt;PIX GATEWAY&lt;/b&gt;&lt;/font&gt;" style="rounded=0;whiteSpace=wrap;html=1;fillColor=#f5f5f5;fontColor=#333333;strokeColor=#666666;" vertex="1" parent="1">
          <mxGeometry x="3605.5" y="2510" width="207" height="90" as="geometry" />
        </mxCell>
        <mxCell id="ImfPI1gHNw6kRm022VUb-134" value="&lt;font size=&quot;1&quot; style=&quot;&quot;&gt;&lt;b style=&quot;font-size: 14px;&quot;&gt;CARD GATEWAY&lt;/b&gt;&lt;/font&gt;" style="rounded=0;whiteSpace=wrap;html=1;fillColor=#f5f5f5;fontColor=#333333;strokeColor=#666666;" vertex="1" parent="1">
          <mxGeometry x="3913" y="2510" width="220" height="90" as="geometry" />
        </mxCell>
        <mxCell id="ImfPI1gHNw6kRm022VUb-138" value="&lt;font size=&quot;1&quot; style=&quot;&quot;&gt;&lt;b style=&quot;font-size: 14px;&quot;&gt;CARD GATEWAY&lt;/b&gt;&lt;/font&gt;" style="rounded=0;whiteSpace=wrap;html=1;fillColor=#f5f5f5;fontColor=#333333;strokeColor=#666666;" vertex="1" parent="1">
          <mxGeometry x="4215" y="2510" width="220" height="90" as="geometry" />
        </mxCell>
        <mxCell id="ImfPI1gHNw6kRm022VUb-139" value="&lt;font style=&quot;font-size: 12px;&quot;&gt;&lt;b style=&quot;border-color: var(--border-color);&quot;&gt;CARD PAYMENT REPOSITORY&lt;/b&gt;&lt;br style=&quot;border-color: var(--border-color);&quot;&gt;Processa o pagamento&lt;br&gt;&lt;/font&gt;" style="rounded=0;whiteSpace=wrap;html=1;fillColor=#dae8fc;strokeColor=#6c8ebf;" vertex="1" parent="1">
          <mxGeometry x="3913" y="2293" width="226" height="100" as="geometry" />
        </mxCell>
        <mxCell id="ImfPI1gHNw6kRm022VUb-140" value="&lt;font style=&quot;font-size: 12px;&quot;&gt;&lt;b style=&quot;border-color: var(--border-color);&quot;&gt;PIX PAYMENT REPOSITORY&lt;/b&gt;&lt;br style=&quot;border-color: var(--border-color);&quot;&gt;Processa o pagamento&lt;/font&gt;" style="rounded=0;whiteSpace=wrap;html=1;fillColor=#dae8fc;strokeColor=#6c8ebf;" vertex="1" parent="1">
          <mxGeometry x="3597" y="2293" width="226" height="100" as="geometry" />
        </mxCell>
        <mxCell id="ImfPI1gHNw6kRm022VUb-141" value="&lt;font style=&quot;font-size: 12px;&quot;&gt;&lt;b style=&quot;border-color: var(--border-color);&quot;&gt;BANK SLIP REPOSITORY&lt;/b&gt;&lt;br style=&quot;border-color: var(--border-color);&quot;&gt;Processa o pagamento&lt;br&gt;&lt;/font&gt;" style="rounded=0;whiteSpace=wrap;html=1;fillColor=#dae8fc;strokeColor=#6c8ebf;" vertex="1" parent="1">
          <mxGeometry x="4213" y="2293" width="226" height="100" as="geometry" />
        </mxCell>
        <mxCell id="ImfPI1gHNw6kRm022VUb-142" value="" style="endArrow=classic;startArrow=classic;html=1;rounded=0;entryX=1;entryY=0.5;entryDx=0;entryDy=0;exitX=1;exitY=0.5;exitDx=0;exitDy=0;" edge="1" parent="1" source="ImfPI1gHNw6kRm022VUb-141" target="ImfPI1gHNw6kRm022VUb-100">
          <mxGeometry width="50" height="50" relative="1" as="geometry">
            <mxPoint x="4327" y="2280" as="sourcePoint" />
            <mxPoint x="4307" y="2290" as="targetPoint" />
            <Array as="points">
              <mxPoint x="4507" y="2343" />
              <mxPoint x="4507" y="1860" />
            </Array>
          </mxGeometry>
        </mxCell>
        <mxCell id="ImfPI1gHNw6kRm022VUb-144" value="OBJECT JAVA" style="edgeLabel;html=1;align=center;verticalAlign=middle;resizable=0;points=[];" connectable="0" vertex="1" parent="ImfPI1gHNw6kRm022VUb-142">
          <mxGeometry x="-0.2951" relative="1" as="geometry">
            <mxPoint as="offset" />
          </mxGeometry>
        </mxCell>
        <mxCell id="ImfPI1gHNw6kRm022VUb-143" value="" style="endArrow=classic;startArrow=classic;html=1;rounded=0;exitX=1;exitY=0.5;exitDx=0;exitDy=0;entryX=1;entryY=0.75;entryDx=0;entryDy=0;" edge="1" parent="1" source="ImfPI1gHNw6kRm022VUb-139" target="ImfPI1gHNw6kRm022VUb-100">
          <mxGeometry width="50" height="50" relative="1" as="geometry">
            <mxPoint x="4479" y="2180" as="sourcePoint" />
            <mxPoint x="4529" y="2130" as="targetPoint" />
            <Array as="points">
              <mxPoint x="4399" y="2343" />
              <mxPoint x="4399" y="1885" />
            </Array>
          </mxGeometry>
        </mxCell>
        <mxCell id="ImfPI1gHNw6kRm022VUb-145" value="OBJECT JAVA" style="edgeLabel;html=1;align=center;verticalAlign=middle;resizable=0;points=[];" connectable="0" vertex="1" parent="ImfPI1gHNw6kRm022VUb-143">
          <mxGeometry x="0.0264" relative="1" as="geometry">
            <mxPoint as="offset" />
          </mxGeometry>
        </mxCell>
        <mxCell id="ImfPI1gHNw6kRm022VUb-146" value="" style="endArrow=classic;startArrow=classic;html=1;rounded=0;entryX=0;entryY=0.75;entryDx=0;entryDy=0;exitX=1;exitY=0.5;exitDx=0;exitDy=0;" edge="1" parent="1" source="ImfPI1gHNw6kRm022VUb-140" target="ImfPI1gHNw6kRm022VUb-100">
          <mxGeometry width="50" height="50" relative="1" as="geometry">
            <mxPoint x="4216" y="2100" as="sourcePoint" />
            <mxPoint x="4266" y="2050" as="targetPoint" />
            <Array as="points">
              <mxPoint x="3866" y="2343" />
              <mxPoint x="3866" y="1885" />
            </Array>
          </mxGeometry>
        </mxCell>
        <mxCell id="ImfPI1gHNw6kRm022VUb-147" value="OBJECT JAVA" style="edgeLabel;html=1;align=center;verticalAlign=middle;resizable=0;points=[];" connectable="0" vertex="1" parent="ImfPI1gHNw6kRm022VUb-146">
          <mxGeometry x="-0.065" y="1" relative="1" as="geometry">
            <mxPoint as="offset" />
          </mxGeometry>
        </mxCell>
        <mxCell id="ImfPI1gHNw6kRm022VUb-148" value="" style="endArrow=classic;startArrow=classic;html=1;rounded=0;entryX=0.5;entryY=1;entryDx=0;entryDy=0;exitX=0.5;exitY=0;exitDx=0;exitDy=0;" edge="1" parent="1" source="ImfPI1gHNw6kRm022VUb-125" target="ImfPI1gHNw6kRm022VUb-140">
          <mxGeometry width="50" height="50" relative="1" as="geometry">
            <mxPoint x="4440" y="2580" as="sourcePoint" />
            <mxPoint x="4490" y="2530" as="targetPoint" />
          </mxGeometry>
        </mxCell>
        <mxCell id="ImfPI1gHNw6kRm022VUb-149" value="HTTP / JSON" style="edgeLabel;html=1;align=center;verticalAlign=middle;resizable=0;points=[];" connectable="0" vertex="1" parent="ImfPI1gHNw6kRm022VUb-148">
          <mxGeometry x="0.1348" y="1" relative="1" as="geometry">
            <mxPoint y="-1" as="offset" />
          </mxGeometry>
        </mxCell>
        <mxCell id="ImfPI1gHNw6kRm022VUb-150" value="" style="endArrow=classic;startArrow=classic;html=1;rounded=0;entryX=0.5;entryY=1;entryDx=0;entryDy=0;exitX=0.513;exitY=-0.024;exitDx=0;exitDy=0;exitPerimeter=0;" edge="1" parent="1" source="ImfPI1gHNw6kRm022VUb-134" target="ImfPI1gHNw6kRm022VUb-139">
          <mxGeometry width="50" height="50" relative="1" as="geometry">
            <mxPoint x="4216" y="2580" as="sourcePoint" />
            <mxPoint x="4266" y="2530" as="targetPoint" />
            <Array as="points">
              <mxPoint x="4026" y="2500" />
            </Array>
          </mxGeometry>
        </mxCell>
        <mxCell id="ImfPI1gHNw6kRm022VUb-151" value="HTTP / JSON" style="edgeLabel;html=1;align=center;verticalAlign=middle;resizable=0;points=[];" connectable="0" vertex="1" parent="ImfPI1gHNw6kRm022VUb-150">
          <mxGeometry x="-0.0991" y="-1" relative="1" as="geometry">
            <mxPoint as="offset" />
          </mxGeometry>
        </mxCell>
        <mxCell id="ImfPI1gHNw6kRm022VUb-152" value="" style="endArrow=classic;startArrow=classic;html=1;rounded=0;entryX=0.5;entryY=1;entryDx=0;entryDy=0;exitX=0.5;exitY=0;exitDx=0;exitDy=0;" edge="1" parent="1" source="ImfPI1gHNw6kRm022VUb-138" target="ImfPI1gHNw6kRm022VUb-141">
          <mxGeometry width="50" height="50" relative="1" as="geometry">
            <mxPoint x="4176" y="2500" as="sourcePoint" />
            <mxPoint x="4226" y="2450" as="targetPoint" />
          </mxGeometry>
        </mxCell>
        <mxCell id="ImfPI1gHNw6kRm022VUb-154" value="HTTP / JSON" style="edgeLabel;html=1;align=center;verticalAlign=middle;resizable=0;points=[];" connectable="0" vertex="1" parent="ImfPI1gHNw6kRm022VUb-152">
          <mxGeometry x="-0.0792" y="2" relative="1" as="geometry">
            <mxPoint as="offset" />
          </mxGeometry>
        </mxCell>
      </root>
    </mxGraphModel>
  </diagram>
</mxfile>
